<?xml version="1.0" standalone="no"?>
<!DOCTYPE svg PUBLIC "-//W3C//DTD SVG 20010904//EN"
 "http://www.w3.org/TR/2001/REC-SVG-20010904/DTD/svg10.dtd">
<svg version="1.0" xmlns="http://www.w3.org/2000/svg"
 width="512.000000pt" height="512.000000pt" viewBox="0 0 512.000000 512.000000"
 preserveAspectRatio="xMidYMid meet">

<g transform="translate(0.000000,512.000000) scale(0.100000,-0.100000)"
fill="#000000" stroke="none">
<path d="M4475 5105 c-102 -28 -169 -68 -262 -158 l-41 -40 -94 46 c-154 76
-225 92 -418 92 -132 0 -179 -4 -235 -19 -342 -94 -599 -352 -684 -689 l-18
-69 -119 -52 c-756 -334 -1387 -888 -1806 -1586 -255 -424 -428 -890 -513
-1384 -27 -157 -26 -182 9 -215 25 -24 177 -96 288 -137 l76 -28 -82 -88 c-93
-98 -138 -174 -161 -269 -38 -162 6 -338 113 -456 42 -45 76 -59 119 -49 19 5
125 105 313 294 233 234 291 298 313 344 15 31 27 64 27 72 0 14 26 16 198 16
229 -1 341 10 542 50 326 65 633 191 918 376 99 65 122 101 98 158 -8 18 -24
41 -37 50 -42 29 -76 20 -178 -46 -201 -131 -462 -247 -702 -312 -313 -85
-704 -104 -1018 -50 -132 23 -131 22 -73 54 92 50 116 72 524 479 224 223 409
403 411 401 2 -3 12 -72 21 -155 13 -117 22 -162 42 -203 59 -121 211 -167
328 -98 51 30 578 561 666 671 288 360 454 762 526 1270 9 66 22 123 28 128 6
4 28 12 49 17 68 19 110 -1 214 -103 l93 -91 0 -77 c0 -100 -24 -284 -56 -424
-57 -256 -187 -563 -328 -780 -71 -109 -80 -144 -46 -188 28 -35 67 -47 110
-33 92 30 330 489 425 820 51 178 95 450 95 585 l0 68 69 51 c170 127 296 313
353 524 20 71 23 106 22 243 -1 144 -3 169 -28 249 l-27 89 206 207 c204 205
205 206 205 250 0 39 -5 48 -44 85 -113 105 -287 149 -431 110z m200 -201 c13
-5 -26 -50 -169 -193 -212 -214 -209 -207 -160 -329 65 -162 69 -338 13 -507
-40 -120 -106 -221 -205 -314 l-77 -72 -86 84 c-98 94 -133 118 -210 141 -102
30 -210 14 -304 -46 -76 -49 -82 -62 -112 -268 -60 -408 -163 -695 -354 -988
-108 -164 -192 -259 -489 -556 -238 -237 -261 -257 -281 -247 -11 7 -21 17
-21 24 0 7 -10 84 -21 172 -38 285 -26 473 41 657 67 184 143 290 367 519 165
169 173 178 173 216 0 67 -61 114 -127 99 -45 -11 -375 -351 -452 -465 -129
-194 -200 -382 -225 -602 l-7 -55 -482 -480 c-517 -515 -527 -523 -662 -559
-122 -31 -345 -8 -345 36 0 10 9 67 21 126 202 1058 841 1964 1779 2526 140
83 353 189 500 247 90 36 126 64 134 102 21 108 50 208 76 260 121 248 355
401 630 415 173 9 307 -28 457 -126 114 -75 122 -74 247 47 105 103 124 117
191 139 38 12 124 11 160 -3z m-3577 -4150 c14 -9 -58 -90 -247 -278 l-220
-220 -12 30 c-7 16 -12 63 -13 104 0 111 21 150 160 290 l115 117 107 -21 c59
-11 108 -21 110 -22z"/>
<path d="M3833 4565 c-64 -28 -80 -116 -29 -164 79 -75 207 15 161 113 -10 20
-30 41 -50 50 -39 19 -41 19 -82 1z"/>
<path d="M1565 4210 c-11 -4 -165 -154 -342 -332 -307 -308 -323 -326 -323
-361 0 -56 45 -102 99 -102 41 0 45 3 371 331 317 317 330 331 330 367 0 49
-13 73 -50 92 -32 17 -55 18 -85 5z"/>
<path d="M625 3271 c-11 -5 -118 -108 -238 -228 -187 -188 -218 -224 -224
-256 -7 -46 15 -83 63 -103 29 -12 38 -12 66 0 42 18 453 431 467 469 12 31
-3 82 -32 105 -20 17 -77 24 -102 13z"/>
<path d="M3244 1636 c-38 -38 -43 -72 -17 -116 38 -66 134 -65 169 1 26 52 10
110 -37 135 -45 23 -78 17 -115 -20z"/>
<path d="M3713 1248 c-272 -272 -406 -413 -413 -434 -9 -25 -8 -40 4 -67 17
-42 41 -57 93 -57 37 0 51 13 451 413 398 399 412 414 412 451 0 55 -43 96
-101 96 l-43 0 -403 -402z"/>
<path d="M2915 441 c-16 -10 -54 -43 -82 -74 -46 -49 -53 -61 -53 -97 0 -56
42 -100 95 -100 33 0 47 9 114 74 70 69 76 78 76 116 0 35 -6 47 -33 71 -38
34 -74 37 -117 10z"/>
</g>
</svg>
